<svg width="29" height="33" viewBox="0 0 29 33" fill="none" xmlns="http://www.w3.org/2000/svg">
<path d="M0.926275 29.5652C1.1912 29.7019 7.49565 32.9132 14.5 32.9132C22.0885 32.9132 27.8527 29.6912 28.0943 29.554C28.1799 29.5054 28.2508 29.4367 28.3 29.3545C28.3491 29.2723 28.375 29.1795 28.375 29.0851C28.375 24.6695 26.9436 20.629 24.3447 17.7072C22.5266 15.6633 20.2455 14.2701 17.7296 13.6288C19.2696 12.9355 20.5146 11.7673 21.26 10.3161C22.0053 8.86489 22.2067 7.21705 21.831 5.64328C21.4554 4.06951 20.525 2.66342 19.1927 1.65602C17.8605 0.648632 16.2056 0.0998535 14.5 0.0998535C12.7944 0.0998535 11.1395 0.648632 9.80729 1.65602C8.47504 2.66342 7.54464 4.06951 7.16896 5.64328C6.79328 7.21705 6.99466 8.86489 7.74001 10.3161C8.48536 11.7673 9.73036 12.9355 11.2704 13.6288C8.75452 14.2701 6.47339 15.6635 4.65533 17.7072C2.05637 20.629 0.625 24.6695 0.625 29.0851C0.625001 29.1833 0.652979 29.2798 0.705993 29.3642C0.759008 29.4487 0.835101 29.5181 0.926275 29.5652V29.5652ZM8.14062 7.21008C8.14062 6.0203 8.5136 4.85724 9.21237 3.86798C9.91115 2.87872 10.9043 2.10768 12.0664 1.65237C13.2284 1.19706 14.5071 1.07793 15.7407 1.31005C16.9742 1.54216 18.1074 2.11509 18.9968 2.95639C19.8861 3.79769 20.4918 4.86958 20.7372 6.03649C20.9826 7.20341 20.8566 8.41295 20.3753 9.51216C19.894 10.6114 19.0789 11.5509 18.0331 12.2119C16.9873 12.8729 15.7578 13.2257 14.5 13.2257C12.814 13.2239 11.1976 12.5895 10.0054 11.4618C8.81316 10.334 8.14254 8.80497 8.14062 7.21008V7.21008ZM5.54 18.4114C7.8877 15.7726 11.0694 14.3195 14.5 14.3195C17.9306 14.3195 21.1123 15.7726 23.46 18.4114C25.8217 21.0663 27.1496 24.7333 27.2161 28.766C25.979 29.3995 20.8383 31.8195 14.5 31.8195C8.63854 31.8195 3.11816 29.3852 1.78414 28.7531C1.85352 24.7253 3.18082 21.0635 5.54 18.4114Z" fill="#3E3B3B"/>
</svg>
